<mxfile host="Electron" modified="2024-05-27T13:09:19.427Z" agent="Mozilla/5.0 (Windows NT 10.0; Win64; x64) AppleWebKit/537.36 (KHTML, like Gecko) draw.io/22.1.2 Chrome/114.0.5735.289 Electron/25.9.4 Safari/537.36" etag="Rr9fIVxtjdTPCwLgKK66" version="22.1.2" type="device" pages="2">
  <diagram name="Page-1" id="A7-xnCa6GZ77hb_ugSaN">
    <mxGraphModel dx="2440" dy="2283" grid="1" gridSize="10" guides="1" tooltips="1" connect="1" arrows="1" fold="1" page="1" pageScale="1" pageWidth="1169" pageHeight="827" math="0" shadow="0">
      <root>
        <mxCell id="0" />
        <mxCell id="1" parent="0" />
        <mxCell id="PGWeTWr600nqLuUM6eGq-1" value="" style="rounded=0;whiteSpace=wrap;html=1;fillColor=none;strokeColor=#3333FF;strokeWidth=2;sketch=1;curveFitting=1;jiggle=2;" vertex="1" parent="1">
          <mxGeometry x="65" y="70" width="1040" height="610" as="geometry" />
        </mxCell>
        <mxCell id="PGWeTWr600nqLuUM6eGq-2" value="" style="rounded=0;whiteSpace=wrap;html=1;fillColor=none;strokeColor=#FF9933;strokeWidth=2;sketch=1;curveFitting=1;jiggle=2;" vertex="1" parent="1">
          <mxGeometry x="85" y="84" width="100" height="586" as="geometry" />
        </mxCell>
        <mxCell id="PGWeTWr600nqLuUM6eGq-4" value="" style="rounded=0;whiteSpace=wrap;html=1;fillColor=#f5f5f5;fontColor=#333333;strokeColor=#666666;strokeWidth=2;sketch=1;curveFitting=1;jiggle=2;" vertex="1" parent="1">
          <mxGeometry x="95" y="110" width="80" height="60" as="geometry" />
        </mxCell>
        <mxCell id="PGWeTWr600nqLuUM6eGq-5" value="" style="rounded=0;whiteSpace=wrap;html=1;fillColor=#f5f5f5;fontColor=#333333;strokeColor=#666666;strokeWidth=2;sketch=1;curveFitting=1;jiggle=2;" vertex="1" parent="1">
          <mxGeometry x="95" y="180" width="80" height="60" as="geometry" />
        </mxCell>
        <mxCell id="PGWeTWr600nqLuUM6eGq-6" value="" style="rounded=0;whiteSpace=wrap;html=1;fillColor=#f5f5f5;fontColor=#333333;strokeColor=#666666;strokeWidth=2;sketch=1;curveFitting=1;jiggle=2;" vertex="1" parent="1">
          <mxGeometry x="95" y="510" width="80" height="60" as="geometry" />
        </mxCell>
        <mxCell id="PGWeTWr600nqLuUM6eGq-7" value="" style="rounded=0;whiteSpace=wrap;html=1;fillColor=#f5f5f5;fontColor=#333333;strokeColor=#666666;strokeWidth=2;sketch=1;curveFitting=1;jiggle=2;" vertex="1" parent="1">
          <mxGeometry x="95" y="580" width="80" height="60" as="geometry" />
        </mxCell>
        <mxCell id="PGWeTWr600nqLuUM6eGq-8" value="" style="rounded=0;whiteSpace=wrap;html=1;fillColor=#f5f5f5;fontColor=#333333;strokeColor=#666666;strokeWidth=2;sketch=1;curveFitting=1;jiggle=2;" vertex="1" parent="1">
          <mxGeometry x="95" y="440" width="80" height="60" as="geometry" />
        </mxCell>
        <mxCell id="PGWeTWr600nqLuUM6eGq-9" value="" style="rounded=0;whiteSpace=wrap;html=1;fillColor=none;strokeColor=#FF9933;strokeWidth=2;sketch=1;curveFitting=1;jiggle=2;" vertex="1" parent="1">
          <mxGeometry x="205" y="84" width="880" height="586" as="geometry" />
        </mxCell>
        <mxCell id="PGWeTWr600nqLuUM6eGq-10" value="" style="rounded=0;whiteSpace=wrap;html=1;fillColor=none;strokeColor=#3333FF;strokeWidth=2;sketch=1;curveFitting=1;jiggle=2;" vertex="1" parent="1">
          <mxGeometry x="215" y="100" width="850" height="80" as="geometry" />
        </mxCell>
        <mxCell id="PGWeTWr600nqLuUM6eGq-11" value="" style="rounded=0;whiteSpace=wrap;html=1;fillColor=#f5f5f5;fontColor=#333333;strokeColor=#666666;strokeWidth=2;sketch=1;curveFitting=1;jiggle=2;" vertex="1" parent="1">
          <mxGeometry x="235" y="110" width="80" height="60" as="geometry" />
        </mxCell>
        <mxCell id="PGWeTWr600nqLuUM6eGq-12" value="" style="rounded=0;whiteSpace=wrap;html=1;fillColor=#f5f5f5;fontColor=#333333;strokeColor=#666666;strokeWidth=2;sketch=1;curveFitting=1;jiggle=2;" vertex="1" parent="1">
          <mxGeometry x="955" y="110" width="80" height="60" as="geometry" />
        </mxCell>
        <mxCell id="PGWeTWr600nqLuUM6eGq-13" value="" style="rounded=0;whiteSpace=wrap;html=1;fillColor=#f5f5f5;fontColor=#333333;strokeColor=#666666;strokeWidth=2;sketch=1;curveFitting=1;jiggle=2;" vertex="1" parent="1">
          <mxGeometry x="865" y="110" width="80" height="60" as="geometry" />
        </mxCell>
        <mxCell id="PGWeTWr600nqLuUM6eGq-14" value="" style="rounded=0;whiteSpace=wrap;html=1;fillColor=#f5f5f5;fontColor=#333333;strokeColor=#666666;strokeWidth=2;sketch=1;curveFitting=1;jiggle=2;" vertex="1" parent="1">
          <mxGeometry x="95" y="250" width="80" height="60" as="geometry" />
        </mxCell>
        <mxCell id="PGWeTWr600nqLuUM6eGq-15" value="Overview Dashboard" style="text;html=1;strokeColor=none;fillColor=none;align=center;verticalAlign=middle;whiteSpace=wrap;rounded=0;fontSize=20;fontFamily=Architects Daughter;sketch=1;curveFitting=1;jiggle=2;" vertex="1" parent="1">
          <mxGeometry x="20" y="40" width="305" height="20" as="geometry" />
        </mxCell>
        <mxCell id="PGWeTWr600nqLuUM6eGq-16" value="Menu" style="text;html=1;strokeColor=none;fillColor=none;align=center;verticalAlign=middle;whiteSpace=wrap;rounded=0;fontSize=20;fontFamily=Architects Daughter;strokeWidth=2;sketch=1;curveFitting=1;jiggle=2;" vertex="1" parent="1">
          <mxGeometry x="105" y="80" width="60" height="20" as="geometry" />
        </mxCell>
        <mxCell id="PGWeTWr600nqLuUM6eGq-18" value="" style="rounded=0;whiteSpace=wrap;html=1;fillColor=none;strokeColor=#3333FF;strokeWidth=2;sketch=1;curveFitting=1;jiggle=2;" vertex="1" parent="1">
          <mxGeometry x="215" y="200" width="850" height="450" as="geometry" />
        </mxCell>
        <mxCell id="PGWeTWr600nqLuUM6eGq-19" value="" style="rounded=0;whiteSpace=wrap;html=1;fillColor=none;strokeColor=#FF9933;strokeWidth=2;sketch=1;curveFitting=1;jiggle=2;" vertex="1" parent="1">
          <mxGeometry x="235" y="230" width="300" height="400" as="geometry" />
        </mxCell>
        <mxCell id="PGWeTWr600nqLuUM6eGq-21" value="Overview" style="text;html=1;strokeColor=none;fillColor=none;align=center;verticalAlign=middle;whiteSpace=wrap;rounded=0;fontSize=20;fontFamily=Architects Daughter;strokeWidth=2;sketch=1;curveFitting=1;jiggle=2;" vertex="1" parent="1">
          <mxGeometry x="355" y="240" width="60" height="20" as="geometry" />
        </mxCell>
        <mxCell id="PGWeTWr600nqLuUM6eGq-23" value="" style="rounded=0;whiteSpace=wrap;html=1;fillColor=none;strokeColor=#FF9933;strokeWidth=2;sketch=1;curveFitting=1;jiggle=2;" vertex="1" parent="1">
          <mxGeometry x="565" y="230" width="470" height="400" as="geometry" />
        </mxCell>
        <mxCell id="PGWeTWr600nqLuUM6eGq-24" value="" style="rounded=0;whiteSpace=wrap;html=1;fillColor=#f5f5f5;fontColor=#333333;strokeColor=#666666;strokeWidth=2;sketch=1;curveFitting=1;jiggle=2;" vertex="1" parent="1">
          <mxGeometry x="250" y="274" width="270" height="76" as="geometry" />
        </mxCell>
        <mxCell id="PGWeTWr600nqLuUM6eGq-25" value="" style="rounded=0;whiteSpace=wrap;html=1;fillColor=#f5f5f5;fontColor=#333333;strokeColor=#666666;strokeWidth=2;sketch=1;curveFitting=1;jiggle=2;" vertex="1" parent="1">
          <mxGeometry x="250" y="370" width="270" height="76" as="geometry" />
        </mxCell>
        <mxCell id="PGWeTWr600nqLuUM6eGq-26" value="" style="rounded=0;whiteSpace=wrap;html=1;fillColor=#f5f5f5;fontColor=#333333;strokeColor=#666666;strokeWidth=2;sketch=1;curveFitting=1;jiggle=2;" vertex="1" parent="1">
          <mxGeometry x="250" y="470" width="270" height="76" as="geometry" />
        </mxCell>
        <mxCell id="PGWeTWr600nqLuUM6eGq-29" value="Income Analysis" style="text;html=1;strokeColor=none;fillColor=none;align=center;verticalAlign=middle;whiteSpace=wrap;rounded=0;fontSize=20;fontFamily=Architects Daughter;strokeWidth=2;sketch=1;curveFitting=1;jiggle=2;" vertex="1" parent="1">
          <mxGeometry x="585" y="460" width="175" height="20" as="geometry" />
        </mxCell>
        <mxCell id="PGWeTWr600nqLuUM6eGq-30" value="Geographics" style="text;html=1;strokeColor=none;fillColor=none;align=center;verticalAlign=middle;whiteSpace=wrap;rounded=0;fontSize=20;fontFamily=Architects Daughter;strokeWidth=2;sketch=1;curveFitting=1;jiggle=2;" vertex="1" parent="1">
          <mxGeometry x="615" y="254" width="60" height="20" as="geometry" />
        </mxCell>
        <mxCell id="PGWeTWr600nqLuUM6eGq-31" value="" style="rounded=0;whiteSpace=wrap;html=1;fillColor=none;strokeColor=#3333FF;strokeWidth=2;sketch=1;curveFitting=1;jiggle=2;" vertex="1" parent="1">
          <mxGeometry x="590" y="490" width="410" height="120" as="geometry" />
        </mxCell>
        <mxCell id="PGWeTWr600nqLuUM6eGq-32" value="" style="rounded=0;whiteSpace=wrap;html=1;fillColor=#f5f5f5;fontColor=#333333;strokeColor=#666666;strokeWidth=2;sketch=1;curveFitting=1;jiggle=2;" vertex="1" parent="1">
          <mxGeometry x="675" y="510" width="100" height="70" as="geometry" />
        </mxCell>
        <mxCell id="PGWeTWr600nqLuUM6eGq-33" value="" style="rounded=0;whiteSpace=wrap;html=1;fillColor=#f5f5f5;fontColor=#333333;strokeColor=#666666;strokeWidth=2;sketch=1;curveFitting=1;jiggle=2;" vertex="1" parent="1">
          <mxGeometry x="830" y="510" width="103.75" height="70" as="geometry" />
        </mxCell>
        <mxCell id="PGWeTWr600nqLuUM6eGq-36" value="" style="rounded=0;whiteSpace=wrap;html=1;fillColor=#f5f5f5;fontColor=#333333;strokeColor=#666666;strokeWidth=2;sketch=1;curveFitting=1;jiggle=2;" vertex="1" parent="1">
          <mxGeometry x="622.5" y="314" width="100" height="76" as="geometry" />
        </mxCell>
        <mxCell id="PGWeTWr600nqLuUM6eGq-37" value="" style="rounded=0;whiteSpace=wrap;html=1;fillColor=#f5f5f5;fontColor=#333333;strokeColor=#666666;strokeWidth=2;sketch=1;curveFitting=1;jiggle=2;" vertex="1" parent="1">
          <mxGeometry x="745" y="314" width="100" height="76" as="geometry" />
        </mxCell>
        <mxCell id="PGWeTWr600nqLuUM6eGq-38" value="" style="rounded=0;whiteSpace=wrap;html=1;fillColor=#f5f5f5;fontColor=#333333;strokeColor=#666666;strokeWidth=2;sketch=1;curveFitting=1;jiggle=2;" vertex="1" parent="1">
          <mxGeometry x="865" y="314" width="100" height="76" as="geometry" />
        </mxCell>
        <mxCell id="PGWeTWr600nqLuUM6eGq-40" value="" style="rounded=0;whiteSpace=wrap;html=1;fillColor=none;strokeColor=#3333FF;strokeWidth=2;sketch=1;curveFitting=1;jiggle=2;" vertex="1" parent="1">
          <mxGeometry x="1220" y="70" width="1040" height="610" as="geometry" />
        </mxCell>
        <mxCell id="PGWeTWr600nqLuUM6eGq-41" value="" style="rounded=0;whiteSpace=wrap;html=1;fillColor=none;strokeColor=#FF9933;strokeWidth=2;sketch=1;curveFitting=1;jiggle=2;" vertex="1" parent="1">
          <mxGeometry x="1240" y="84" width="100" height="586" as="geometry" />
        </mxCell>
        <mxCell id="PGWeTWr600nqLuUM6eGq-42" value="" style="rounded=0;whiteSpace=wrap;html=1;fillColor=#f5f5f5;fontColor=#333333;strokeColor=#666666;strokeWidth=2;sketch=1;curveFitting=1;jiggle=2;" vertex="1" parent="1">
          <mxGeometry x="1250" y="110" width="80" height="60" as="geometry" />
        </mxCell>
        <mxCell id="PGWeTWr600nqLuUM6eGq-43" value="" style="rounded=0;whiteSpace=wrap;html=1;fillColor=#f5f5f5;fontColor=#333333;strokeColor=#666666;strokeWidth=2;sketch=1;curveFitting=1;jiggle=2;" vertex="1" parent="1">
          <mxGeometry x="1250" y="180" width="80" height="60" as="geometry" />
        </mxCell>
        <mxCell id="PGWeTWr600nqLuUM6eGq-44" value="" style="rounded=0;whiteSpace=wrap;html=1;fillColor=#f5f5f5;fontColor=#333333;strokeColor=#666666;strokeWidth=2;sketch=1;curveFitting=1;jiggle=2;" vertex="1" parent="1">
          <mxGeometry x="1250" y="510" width="80" height="60" as="geometry" />
        </mxCell>
        <mxCell id="PGWeTWr600nqLuUM6eGq-45" value="" style="rounded=0;whiteSpace=wrap;html=1;fillColor=#f5f5f5;fontColor=#333333;strokeColor=#666666;strokeWidth=2;sketch=1;curveFitting=1;jiggle=2;" vertex="1" parent="1">
          <mxGeometry x="1250" y="580" width="80" height="60" as="geometry" />
        </mxCell>
        <mxCell id="PGWeTWr600nqLuUM6eGq-46" value="" style="rounded=0;whiteSpace=wrap;html=1;fillColor=#f5f5f5;fontColor=#333333;strokeColor=#666666;strokeWidth=2;sketch=1;curveFitting=1;jiggle=2;" vertex="1" parent="1">
          <mxGeometry x="1250" y="440" width="80" height="60" as="geometry" />
        </mxCell>
        <mxCell id="PGWeTWr600nqLuUM6eGq-47" value="" style="rounded=0;whiteSpace=wrap;html=1;fillColor=none;strokeColor=#FF9933;strokeWidth=2;sketch=1;curveFitting=1;jiggle=2;" vertex="1" parent="1">
          <mxGeometry x="1360" y="84" width="880" height="586" as="geometry" />
        </mxCell>
        <mxCell id="PGWeTWr600nqLuUM6eGq-48" value="" style="rounded=0;whiteSpace=wrap;html=1;fillColor=none;strokeColor=#3333FF;strokeWidth=2;sketch=1;curveFitting=1;jiggle=2;" vertex="1" parent="1">
          <mxGeometry x="1370" y="100" width="850" height="80" as="geometry" />
        </mxCell>
        <mxCell id="PGWeTWr600nqLuUM6eGq-49" value="" style="rounded=0;whiteSpace=wrap;html=1;fillColor=#f5f5f5;fontColor=#333333;strokeColor=#666666;strokeWidth=2;sketch=1;curveFitting=1;jiggle=2;" vertex="1" parent="1">
          <mxGeometry x="1390" y="110" width="80" height="60" as="geometry" />
        </mxCell>
        <mxCell id="PGWeTWr600nqLuUM6eGq-50" value="" style="rounded=0;whiteSpace=wrap;html=1;fillColor=#f5f5f5;fontColor=#333333;strokeColor=#666666;strokeWidth=2;sketch=1;curveFitting=1;jiggle=2;" vertex="1" parent="1">
          <mxGeometry x="2110" y="110" width="80" height="60" as="geometry" />
        </mxCell>
        <mxCell id="PGWeTWr600nqLuUM6eGq-51" value="" style="rounded=0;whiteSpace=wrap;html=1;fillColor=#f5f5f5;fontColor=#333333;strokeColor=#666666;strokeWidth=2;sketch=1;curveFitting=1;jiggle=2;" vertex="1" parent="1">
          <mxGeometry x="2020" y="110" width="80" height="60" as="geometry" />
        </mxCell>
        <mxCell id="PGWeTWr600nqLuUM6eGq-52" value="" style="rounded=0;whiteSpace=wrap;html=1;fillColor=#f5f5f5;fontColor=#333333;strokeColor=#666666;strokeWidth=2;sketch=1;curveFitting=1;jiggle=2;" vertex="1" parent="1">
          <mxGeometry x="1250" y="250" width="80" height="60" as="geometry" />
        </mxCell>
        <mxCell id="PGWeTWr600nqLuUM6eGq-53" value="Detail Dashboard" style="text;html=1;strokeColor=none;fillColor=none;align=center;verticalAlign=middle;whiteSpace=wrap;rounded=0;fontSize=20;fontFamily=Architects Daughter;strokeWidth=2;sketch=1;curveFitting=1;jiggle=2;" vertex="1" parent="1">
          <mxGeometry x="1180" y="40" width="305" height="20" as="geometry" />
        </mxCell>
        <mxCell id="PGWeTWr600nqLuUM6eGq-54" value="Menu" style="text;html=1;strokeColor=none;fillColor=none;align=center;verticalAlign=middle;whiteSpace=wrap;rounded=0;fontSize=20;fontFamily=Architects Daughter;strokeWidth=2;sketch=1;curveFitting=1;jiggle=2;" vertex="1" parent="1">
          <mxGeometry x="1260" y="80" width="60" height="20" as="geometry" />
        </mxCell>
        <mxCell id="PGWeTWr600nqLuUM6eGq-55" value="Title" style="text;html=1;strokeColor=none;fillColor=none;align=center;verticalAlign=middle;whiteSpace=wrap;rounded=0;fontSize=20;fontFamily=Architects Daughter;strokeWidth=2;sketch=1;curveFitting=1;jiggle=2;" vertex="1" parent="1">
          <mxGeometry x="1470" y="120" width="60" height="20" as="geometry" />
        </mxCell>
        <mxCell id="PGWeTWr600nqLuUM6eGq-73" value="" style="rounded=0;whiteSpace=wrap;html=1;fillColor=none;strokeColor=#FF9933;strokeWidth=2;sketch=1;curveFitting=1;jiggle=2;" vertex="1" parent="1">
          <mxGeometry x="1380" y="200" width="830" height="450" as="geometry" />
        </mxCell>
        <mxCell id="PGWeTWr600nqLuUM6eGq-74" value="" style="rounded=0;whiteSpace=wrap;html=1;fillColor=none;strokeColor=#3333FF;strokeWidth=2;sketch=1;curveFitting=1;jiggle=2;" vertex="1" parent="1">
          <mxGeometry x="1390" y="210" width="800" height="90" as="geometry" />
        </mxCell>
        <mxCell id="PGWeTWr600nqLuUM6eGq-75" value="" style="rounded=0;whiteSpace=wrap;html=1;fillColor=#f5f5f5;fontColor=#333333;strokeColor=#666666;strokeWidth=2;sketch=1;curveFitting=1;jiggle=2;" vertex="1" parent="1">
          <mxGeometry x="1440" y="225" width="80" height="60" as="geometry" />
        </mxCell>
        <mxCell id="PGWeTWr600nqLuUM6eGq-76" value="" style="rounded=0;whiteSpace=wrap;html=1;fillColor=#f5f5f5;fontColor=#333333;strokeColor=#666666;strokeWidth=2;sketch=1;curveFitting=1;jiggle=2;" vertex="1" parent="1">
          <mxGeometry x="1560" y="225" width="80" height="60" as="geometry" />
        </mxCell>
        <mxCell id="PGWeTWr600nqLuUM6eGq-77" value="" style="rounded=0;whiteSpace=wrap;html=1;fillColor=#f5f5f5;fontColor=#333333;strokeColor=#666666;strokeWidth=2;sketch=1;curveFitting=1;jiggle=2;" vertex="1" parent="1">
          <mxGeometry x="1680" y="225" width="80" height="60" as="geometry" />
        </mxCell>
        <mxCell id="PGWeTWr600nqLuUM6eGq-78" value="" style="rounded=0;whiteSpace=wrap;html=1;fillColor=#f5f5f5;fontColor=#333333;strokeColor=#666666;strokeWidth=2;sketch=1;curveFitting=1;jiggle=2;" vertex="1" parent="1">
          <mxGeometry x="1790" y="225" width="80" height="60" as="geometry" />
        </mxCell>
        <mxCell id="PGWeTWr600nqLuUM6eGq-79" value="" style="rounded=0;whiteSpace=wrap;html=1;fillColor=#f5f5f5;fontColor=#333333;strokeColor=#666666;strokeWidth=2;sketch=1;curveFitting=1;jiggle=2;" vertex="1" parent="1">
          <mxGeometry x="1900" y="225" width="80" height="60" as="geometry" />
        </mxCell>
        <mxCell id="PGWeTWr600nqLuUM6eGq-80" value="" style="rounded=0;whiteSpace=wrap;html=1;fillColor=#f5f5f5;fontColor=#333333;strokeColor=#666666;strokeWidth=2;sketch=1;curveFitting=1;jiggle=2;" vertex="1" parent="1">
          <mxGeometry x="2010" y="225" width="80" height="60" as="geometry" />
        </mxCell>
        <mxCell id="PGWeTWr600nqLuUM6eGq-81" value="" style="rounded=0;whiteSpace=wrap;html=1;fillColor=#f5f5f5;fontColor=#333333;strokeColor=#666666;strokeWidth=2;sketch=1;curveFitting=1;jiggle=2;" vertex="1" parent="1">
          <mxGeometry x="1390" y="314" width="800" height="316" as="geometry" />
        </mxCell>
        <mxCell id="vjm-o3LrQS6AP1Cw-ad6-1" value="" style="rounded=0;whiteSpace=wrap;html=1;fillColor=none;strokeColor=#3333FF;strokeWidth=2;sketch=1;curveFitting=1;jiggle=2;" vertex="1" parent="1">
          <mxGeometry x="580" y="280" width="430" height="140" as="geometry" />
        </mxCell>
        <mxCell id="vjm-o3LrQS6AP1Cw-ad6-3" value="Horizental Contailer" style="rounded=0;whiteSpace=wrap;html=1;fillColor=none;strokeColor=#3333FF;strokeWidth=2;sketch=1;curveFitting=1;jiggle=2;fontFamily=Architects Daughter;fontSource=https%3A%2F%2Ffonts.googleapis.com%2Fcss%3Ffamily%3DArchitects%2BDaughter;fontStyle=1;fontSize=14;" vertex="1" parent="1">
          <mxGeometry x="73.13" y="-85" width="113.75" height="80" as="geometry" />
        </mxCell>
        <mxCell id="vjm-o3LrQS6AP1Cw-ad6-4" value="Vertical&lt;br&gt;Contailer" style="rounded=0;whiteSpace=wrap;html=1;fillColor=none;strokeColor=#FF9933;strokeWidth=2;sketch=1;curveFitting=1;jiggle=2;fontFamily=Architects Daughter;fontSource=https%3A%2F%2Ffonts.googleapis.com%2Fcss%3Ffamily%3DArchitects%2BDaughter;fontStyle=1;fontSize=14;" vertex="1" parent="1">
          <mxGeometry x="213.13" y="-85" width="113.75" height="80" as="geometry" />
        </mxCell>
        <mxCell id="vjm-o3LrQS6AP1Cw-ad6-5" value="Object" style="rounded=0;whiteSpace=wrap;html=1;fillColor=#f5f5f5;fontColor=#333333;strokeColor=#666666;strokeWidth=2;sketch=1;curveFitting=1;jiggle=2;fontFamily=Architects Daughter;fontSource=https%3A%2F%2Ffonts.googleapis.com%2Fcss%3Ffamily%3DArchitects%2BDaughter;fontSize=16;fontStyle=1" vertex="1" parent="1">
          <mxGeometry x="356.88" y="-85" width="120" height="85" as="geometry" />
        </mxCell>
      </root>
    </mxGraphModel>
  </diagram>
  <diagram id="QTRGO-czo_Jq77veqDAf" name="Page-2">
    <mxGraphModel dx="2074" dy="1238" grid="1" gridSize="10" guides="1" tooltips="1" connect="1" arrows="1" fold="1" page="1" pageScale="1" pageWidth="1169" pageHeight="827" math="0" shadow="0">
      <root>
        <mxCell id="0" />
        <mxCell id="1" parent="0" />
      </root>
    </mxGraphModel>
  </diagram>
</mxfile>
